<svg width="22" height="20" viewBox="0 0 22 20" fill="none" xmlns="http://www.w3.org/2000/svg">
<path id="Caminho 1439" d="M21 18.9811V16.9853C21.0007 16.1005 20.7069 15.2407 20.1648 14.5414C19.6228 13.8422 18.8633 13.3433 18.0063 13.1234M14.5137 1.30836C15.2519 1.60592 15.8844 2.11737 16.3298 2.77707C16.7752 3.43677 17.0132 4.21455 17.0132 5.01052C17.0132 5.80649 16.7752 6.58427 16.3298 7.24397C15.8844 7.90367 15.2519 8.41512 14.5137 8.71267M16.0105 18.9811C16.1189 17.7984 16.0175 16.6059 15.7111 15.4585C15.3018 14.4802 14.524 13.7025 13.5457 13.2931C12.3983 12.9867 11.2058 12.8853 10.0231 12.9937H7.02946C5.8468 12.8853 4.65426 12.9867 3.50685 13.2931C2.52862 13.7025 1.75085 14.4802 1.3415 15.4585C1.03509 16.6059 0.933697 17.7984 1.04208 18.9811M12.5179 5.01052C12.5179 5.79998 12.2838 6.57172 11.8452 7.22813C11.4066 7.88455 10.7832 8.39619 10.0538 8.6983C9.32447 9.00041 8.52184 9.07938 7.74755 8.92536C6.97326 8.77135 6.26211 8.39117 5.70388 7.83294C5.14565 7.27471 4.76547 6.56356 4.61146 5.78927C4.45744 5.01498 4.53641 4.21235 4.83852 3.48298C5.14063 2.75361 5.65227 2.13019 6.30869 1.69159C6.9651 1.25299 7.73684 1.01894 8.5263 1.01894C9.58493 1.01894 10.6002 1.43953 11.3487 2.1881C12.0973 2.93667 12.5179 3.95189 12.5179 5.01052Z" stroke="white" stroke-width="1.5" stroke-linecap="round" stroke-linejoin="round"/>
</svg>
