<svg width="22" height="22" viewBox="0 0 22 22" fill="none" xmlns="http://www.w3.org/2000/svg">
<path id="Caminho 1184" d="M9.97124 3.10368H5.8062C4.74982 2.98501 3.68028 3.09565 2.67054 3.42798C2.1111 3.71365 1.65612 4.1686 1.37045 4.72804C1.03815 5.73779 0.927544 6.80732 1.04618 7.8637V16.1938C0.927544 17.2502 1.03815 18.3197 1.37045 19.3294C1.65612 19.8889 2.1111 20.3438 2.67054 20.6295C3.68028 20.9618 4.74982 21.0725 5.8062 20.9538H14.1363C15.1927 21.0725 16.2622 20.9618 17.2719 20.6295C17.8314 20.3438 18.2864 19.8889 18.572 19.3294C18.9043 18.3197 19.0149 17.2502 18.8963 16.1938V12.0287M6.99622 15.0038H8.65726C8.97663 15.0215 9.29699 15.0033 9.61226 14.9492C9.81503 14.9008 10.0088 14.8204 10.1864 14.7112C10.4477 14.5266 10.6872 14.313 10.9005 14.0746L20.3838 4.59119C20.7783 4.19667 21 3.6616 21 3.10368C21 2.54575 20.7783 2.01068 20.3838 1.61616C19.9893 1.22165 19.4542 1 18.8963 1C18.3384 1 17.8033 1.22165 17.4088 1.61616L7.92543 11.0995C7.68692 11.3127 7.47335 11.5523 7.28878 11.8136C7.17955 11.9912 7.0992 12.1849 7.05076 12.3877C6.99673 12.703 6.97844 13.0234 6.99622 13.3427V15.0038Z" stroke="#A2A2A2" stroke-width="1.5" stroke-linecap="round" stroke-linejoin="round"/>
</svg>
