<svg width="20" height="16" viewBox="0 0 20 16" fill="none" xmlns="http://www.w3.org/2000/svg">
<g id="Vector">
<path d="M18.2 10.99C16.2 13.4 13.27 14.94 10 14.94C6.73001 14.94 3.81 13.41 1.8 10.99C0.4 9.3 0.4 6.69999 1.8 5.00999C3.8 2.59999 6.73001 1.06 10 1.06C13.27 1.06 16.19 2.58999 18.2 5.00999C19.6 6.69999 19.6 9.3 18.2 10.99Z" stroke="#A2A2A2" stroke-width="1.5" stroke-linecap="round" stroke-linejoin="round"/>
<path d="M10 11.08C8.29899 11.08 6.92004 9.70103 6.92004 8C6.92004 6.29896 8.29899 4.91999 10 4.91999C11.7011 4.91999 13.08 6.29896 13.08 8C13.08 9.70103 11.7011 11.08 10 11.08Z" stroke="#A2A2A2" stroke-width="1.5" stroke-linecap="round" stroke-linejoin="round"/>
</g>
</svg>
